<?xml version="1.0" encoding="UTF-8"?>
<svg version="1.1" xmlns="http://www.w3.org/2000/svg" width="200" height="200">
<path d="M0 0 C66 0 132 0 200 0 C200 66 200 132 200 200 C134 200 68 200 0 200 C0 134 0 68 0 0 Z " fill="#FAFBF9" transform="translate(0,0)"/>
<path d="M0 0 C2.475 0.495 2.475 0.495 5 1 C5 1.66 5 2.32 5 3 C5.66 3 6.32 3 7 3 C7.86627399 4.59766103 8.71766465 6.20339944 9.5625 7.8125 C10.03816406 8.70582031 10.51382813 9.59914063 11.00390625 10.51953125 C12 13 12 13 11 16 C10.01 15.505 10.01 15.505 9 15 C10.90045308 17.2897394 10.90045308 17.2897394 14.0625 17.5 C15.031875 17.665 16.00125 17.83 17 18 C17.495 18.99 17.495 18.99 18 20 C18.66 20 19.32 20 20 20 C21.25 26.625 21.25 26.625 19 30 C18.34 30 17.68 30 17 30 C17 29.01 17 28.02 17 27 C16.01 27 15.02 27 14 27 C14 26.34 14 25.68 14 25 C8.229216 22.19259157 2.91654683 23.05483392 -3 25 C-5.20300883 26.50402353 -6.34887339 27.8535354 -8 30 C-8.495 30.495 -8.495 30.495 -9 31 C-9.58046897 36.05293483 -9.54901225 39.93983841 -7.1875 44.5 C-3.43515621 48.7883929 -0.51643945 49.37549742 5 50 C5.66 52.64 6.32 55.28 7 58 C2.05 57.67 -2.9 57.34 -8 57 C-6.906875 57.845625 -5.81375 58.69125 -4.6875 59.5625 C-1.19604635 62.62989045 1.15229551 65.34929099 2 70 C2.75284091 83.49431818 2.75284091 83.49431818 1 87 C0.34 87 -0.32 87 -1 87 C-1.23460937 87.76699219 -1.46921875 88.53398437 -1.7109375 89.32421875 C-3.95122772 93.97451814 -8.31519413 95.32832918 -13 97 C-18.54391511 98.05739557 -23.10274451 96.67963036 -28 94 C-31.58720548 90.59539447 -34.91593962 86.9633936 -38.25 83.3125 C-38.72308594 82.79502197 -39.19617188 82.27754395 -39.68359375 81.74438477 C-43.52308627 77.53882803 -47.3313385 73.30554201 -51.125 69.05859375 C-52.91112276 67.0069979 -52.91112276 67.0069979 -54.8125 65.47265625 C-55.204375 64.98667969 -55.59625 64.50070313 -56 64 C-55.35588127 59.46621651 -52.43724395 56.91844097 -49.375 53.75 C-48.27130766 52.58411638 -47.16843863 51.4174528 -46.06640625 50.25 C-45.53418457 49.68925781 -45.00196289 49.12851563 -44.45361328 48.55078125 C-42.68427409 46.66316914 -40.99119466 44.71839847 -39.3125 42.75 C-36.11459193 39.04634005 -32.65765518 35.64209007 -29.17578125 32.20703125 C-27.25502616 30.25868901 -25.45957195 28.27000791 -23.6875 26.1875 C-20.65867125 22.64447474 -17.38866298 19.38522696 -14.0625 16.125 C-8.92553317 11.07791605 -4.33420531 5.76194353 0 0 Z " fill="#F7A251" transform="translate(98,52)"/>
<path d="M0 0 C4 2 4 2 6 4 C7.32 4 8.64 4 10 4 C10.144375 4.78375 10.28875 5.5675 10.4375 6.375 C10.87798925 8.96421018 10.87798925 8.96421018 12 11 C12.66 11 13.32 11 14 11 C13.67 8.69 13.34 6.38 13 4 C13.99 4 14.98 4 16 4 C16.33 4.99 16.66 5.98 17 7 C17.99 7.66 18.98 8.32 20 9 C20 9.99 20 10.98 20 12 C21.32 11.67 22.64 11.34 24 11 C24 11.66 24 12.32 24 13 C25.32 13 26.64 13 28 13 C29.7109375 14.5390625 29.7109375 14.5390625 31.375 16.625 C33.62224839 19.37812249 35.86834192 21.86314732 38.5 24.25 C41 27 41 27 40.9609375 28.859375 C39.59393075 31.90457704 37.53610942 33.70769887 35.125 36 C31.49068262 39.45857078 31.49068262 39.45857078 28.3046875 43.3125 C27.87414062 43.869375 27.44359375 44.42625 27 45 C26.34 45 25.68 45 25 45 C24.73123047 45.59474121 24.46246094 46.18948242 24.18554688 46.80224609 C22.99676866 49.00599022 21.81085823 50.42020042 20.03125 52.1640625 C19.46019531 52.72867188 18.88914063 53.29328125 18.30078125 53.875 C17.70652344 54.4525 17.11226562 55.03 16.5 55.625 C15.60861328 56.50285156 15.60861328 56.50285156 14.69921875 57.3984375 C13.59796823 58.48228677 12.49467333 59.56406561 11.38867188 60.64306641 C10.25147153 61.75427589 9.12428002 62.87571998 8 64 C7.89042969 63.24976563 7.78085938 62.49953125 7.66796875 61.7265625 C5.32560307 46.11699614 5.32560307 46.11699614 -3 33 C-3.36760731 30.67182036 -3.70241581 28.3381615 -4 26 C-4.66 26 -5.32 26 -6 26 C-7.1577506 22.52674819 -7.06866652 19.63932552 -7 16 C-6.34 16.66 -5.68 17.32 -5 18 C-4.67 16.02 -4.34 14.04 -4 12 C-1.69 12.33 0.62 12.66 3 13 C2.67 11.68 2.34 10.36 2 9 C1.34 9 0.68 9 0 9 C0 6.03 0 3.06 0 0 Z " fill="#F7A251" transform="translate(117,86)"/>
<path d="M0 0 C1.1282554 1.1282554 2.25614956 2.25687314 3.3828125 3.38671875 C4.53917449 4.5402876 5.70129744 5.68809309 6.8671875 6.83203125 C7.86105469 7.81236328 7.86105469 7.81236328 8.875 8.8125 C9.79925781 9.71935547 9.79925781 9.71935547 10.7421875 10.64453125 C12.63679921 12.62108983 14.43739543 14.63192274 16.23046875 16.69921875 C20.18165938 21.24604767 24.29574046 25.62709012 28.4375 30 C29.53481445 31.16208984 29.53481445 31.16208984 30.65429688 32.34765625 C32.43490214 34.233003 34.21681678 36.11709191 36 38 C32.98968256 38.93423645 32.13349732 39.04449911 29 38 C28.67 37.01 28.34 36.02 28 35 C27.01 34.34 26.02 33.68 25 33 C25 32.01 25 31.02 25 30 C24.01 30 23.02 30 22 30 C22.495 33.465 22.495 33.465 23 37 C21.68 37 20.36 37 19 37 C19 34.69 19 32.38 19 30 C18.34 30 17.68 30 17 30 C17 31.65 17 33.3 17 35 C16.01 35 15.02 35 14 35 C13.731875 33.88625 13.46375 32.7725 13.1875 31.625 C12.34190981 27.78159049 12.34190981 27.78159049 9 26 C9 28.97 9 31.94 9 35 C9.66 35 10.32 35 11 35 C11 33.35 11 31.7 11 30 C11.33 30 11.66 30 12 30 C13.125 36.75 13.125 36.75 12 39 C9.4375 39.625 9.4375 39.625 7 40 C7 39.34 7 38.68 7 38 C6.34 38 5.68 38 5 38 C5.3403125 38.86625 5.3403125 38.86625 5.6875 39.75 C6.11445514 42.82407699 4.80615783 43.59178956 3 46 C3.26504879 49.00388632 3.83304275 49.83304275 6 52 C6.125 55.125 6.125 55.125 6 58 C5.29875 57.401875 4.5975 56.80375 3.875 56.1875 C1.02969023 54.02259039 -1.76632767 52.50403364 -5 51 C-4.67 50.34 -4.34 49.68 -4 49 C-4.28241883 46.6599583 -4.61250787 44.32495277 -5 42 C-6.546875 42.1546875 -6.546875 42.1546875 -8.125 42.3125 C-13.24924487 41.89925445 -14.45446018 40.62799424 -18 37 C-20.72950577 32.55640186 -20.65829631 28.06888155 -20 23 C-17.591025 18.64531442 -14.61248929 16.75274593 -10 15 C-6.625 14.8125 -6.625 14.8125 -4 15 C-3.67 14.01 -3.34 13.02 -3 12 C-2.67 12.66 -2.34 13.32 -2 14 C-0.06669397 15.09166275 -0.06669397 15.09166275 2 16 C2.66 16.33 3.32 16.66 4 17 C4 17.66 4 18.32 4 19 C5.98 19 7.96 19 10 19 C10 16.69 10 14.38 10 12 C8.35 12.33 6.7 12.66 5 13 C5 11.68 5 10.36 5 9 C3.35 9.33 1.7 9.66 0 10 C-0.33 9.01 -0.66 8.02 -1 7 C-0.34 7 0.32 7 1 7 C0.67 4.69 0.34 2.38 0 0 Z " fill="#F8A455" transform="translate(108,60)"/>
<path d="M0 0 C4.1379219 2.06896095 6.27242495 3.75109921 8 8 C8.73163625 12.67906904 8.40695361 16.17102041 6.3125 20.4375 C2.87778927 24.24353081 0.55493053 24.88893353 -4.5 25.25 C-9.52191077 24.89129209 -11.85748215 24.23515444 -15.3125 20.5 C-17.53871028 15.88267498 -17.85033237 12.04306032 -17 7 C-12.75360992 -0.02850771 -7.7036481 -0.9824248 0 0 Z " fill="#FCFCF8" transform="translate(105,76)"/>
<path d="M0 0 C1.98 0 3.96 0 6 0 C8.09563315 3.36239646 8.09603793 5.29496344 7.25 9.125 C7.06953125 9.99382812 6.8890625 10.86265625 6.703125 11.7578125 C6 14 6 14 4 16 C1.24279442 16.01691537 -1.26716418 15.47716181 -4 15 C-4.33 14.67 -4.66 14.34 -5 14 C-4.9140625 12.0390625 -4.9140625 12.0390625 -4.625 9.625 C-4.48964844 8.43777344 -4.48964844 8.43777344 -4.3515625 7.2265625 C-4 5 -4 5 -3 2 C-2.01 2 -1.02 2 0 2 C0 1.34 0 0.68 0 0 Z " fill="#151415" transform="translate(83,165)"/>
<path d="M0 0 C1.65 0 3.3 0 5 0 C5.66 1.32 6.32 2.64 7 4 C7.66 2.68 8.32 1.36 9 0 C10.98 0 12.96 0 15 0 C15 3.96 15 7.92 15 12 C14.01 12 13.02 12 12 12 C11.67 10.35 11.34 8.7 11 7 C10.34 8.98 9.68 10.96 9 13 C7.68 12.67 6.36 12.34 5 12 C5 11.34 5 10.68 5 10 C4.34 10 3.68 10 3 10 C3 10.99 3 11.98 3 13 C2.01 13 1.02 13 0 13 C0 8.71 0 4.42 0 0 Z " fill="#464646" transform="translate(92,19)"/>
<path d="M0 0 C1.32 0.66 2.64 1.32 4 2 C3.67 4.31 3.34 6.62 3 9 C3.99 8.34 4.98 7.68 6 7 C8.6875 6.875 8.6875 6.875 11 7 C11.33 7.99 11.66 8.98 12 10 C10.56640625 12.26171875 10.56640625 12.26171875 8.5625 14.6875 C7.57443359 15.89986328 7.57443359 15.89986328 6.56640625 17.13671875 C5.79103516 18.05904297 5.79103516 18.05904297 5 19 C4.01 18.67 3.02 18.34 2 18 C2.66 16.68 3.32 15.36 4 14 C3.38125 14.185625 2.7625 14.37125 2.125 14.5625 C0 15 0 15 -2 14 C-2 12.02 -2 10.04 -2 8 C-3.32 8.99 -4.64 9.98 -6 11 C-6 6.63204596 -5.77237852 6.25341007 -3 3.25 C-2.443125 2.63640625 -1.88625 2.0228125 -1.3125 1.390625 C-0.6628125 0.70226562 -0.6628125 0.70226562 0 0 Z " fill="#1B1B1B" transform="translate(49,149)"/>
<path d="M0 0 C2 2 2 2 2.265625 3.875 C2.26046875 4.57625 2.2553125 5.2775 2.25 6 C2.25515625 6.70125 2.2603125 7.4025 2.265625 8.125 C2 10 2 10 0 12 C-2.09375 12.30078125 -2.09375 12.30078125 -4.5 12.3125 C-5.2940625 12.32925781 -6.088125 12.34601563 -6.90625 12.36328125 C-7.5971875 12.24339844 -8.288125 12.12351562 -9 12 C-11.45331002 8.32003497 -11.39507893 6.34586828 -11 2 C-6.93150591 -0.71232939 -4.83523216 -0.30699887 0 0 Z " fill="#282928" transform="translate(30,107)"/>
<path d="M0 0 C2.375 2.1875 2.375 2.1875 4 5 C4 8.24570608 3.50123855 9.48086008 1.25 11.8125 C-1.49884554 13.26327959 -2.93447101 13.53646757 -6 13 C-8.72578551 11.01091327 -9.81831444 9.80749138 -10.5625 6.5 C-10 4 -10 4 -7.8125 1.6875 C-4.74490745 -0.15305553 -3.48147064 -0.8034163 0 0 Z " fill="#1F1F1F" transform="translate(42,138)"/>
<path d="M0 0 C0.99 0 1.98 0 3 0 C3 4.29 3 8.58 3 13 C1.35 13 -0.3 13 -2 13 C-2.66 12.01 -3.32 11.02 -4 10 C-4.33 11.32 -4.66 12.64 -5 14 C-6.32 14 -7.64 14 -9 14 C-9 9.71 -9 5.42 -9 1 C-7.02 1 -5.04 1 -3 1 C-2.34 2.32 -1.68 3.64 -1 5 C-0.67 3.35 -0.34 1.7 0 0 Z " fill="#646564" transform="translate(104,169)"/>
<path d="M0 0 C2.375 1.125 2.375 1.125 4 3 C4.5 6 4.5 6 4 9 C1.61959879 11.85648146 0.09267484 11.99041295 -3.625 12.375 C-4.73875 12.25125 -5.8525 12.1275 -7 12 C-9.31282587 8.53076119 -9.42478586 7.07794425 -9 3 C-6.78557651 -0.69070582 -4.02540619 -0.49290688 0 0 Z " fill="#121112" transform="translate(43,48)"/>
<path d="M0 0 C1.875 1.125 1.875 1.125 3 3 C3.38976435 6.11811483 3.50422245 8.11019567 1.9375 10.875 C-1.14071911 12.66235303 -3.52906068 12.43386742 -7 12 C-9.41022129 9.900775 -9.90282867 8.56914635 -10.4375 5.4375 C-10 3 -10 3 -8.375 1.1875 C-5.3347031 -0.33264845 -3.35958291 -0.42888292 0 0 Z " fill="#0F0E0F" transform="translate(163,45)"/>
<path d="M0 0 C1.75 1.375 1.75 1.375 3 3 C3 3.66 3 4.32 3 5 C4.32 5.66 5.64 6.32 7 7 C6.67 7.99 6.34 8.98 6 10 C4.35 9.67 2.7 9.34 1 9 C1 10.98 1 12.96 1 15 C-2.62613199 14.43040847 -4.25517741 13.07625466 -6.75 10.4375 C-7.36359375 9.79683594 -7.9771875 9.15617188 -8.609375 8.49609375 C-9.06828125 8.00238281 -9.5271875 7.50867188 -10 7 C-9.09827532 5.82174642 -8.17798498 4.65768423 -7.25 3.5 C-6.73953125 2.8503125 -6.2290625 2.200625 -5.703125 1.53125 C-4 0 -4 0 0 0 Z " fill="#242324" transform="translate(154,147)"/>
<path d="M0 0 C0.75 2.25 0.75 2.25 1 5 C-0.9375 7.3125 -0.9375 7.3125 -3 9 C-1.02 8.67 0.96 8.34 3 8 C3.33 9.32 3.66 10.64 4 12 C2.58603098 12.50757862 1.16868271 13.00574925 -0.25 13.5 C-1.03890625 13.7784375 -1.8278125 14.056875 -2.640625 14.34375 C-5 15 -5 15 -9 15 C-9.6875 12.6875 -9.6875 12.6875 -10 10 C-8.6875 8.1875 -8.6875 8.1875 -7 7 C-6.34 7 -5.68 7 -5 7 C-5 6.34 -5 5.68 -5 5 C-5.598125 5.33 -6.19625 5.66 -6.8125 6 C-9 7 -9 7 -12 7 C-11.9375 5.1875 -11.9375 5.1875 -11 3 C-7.03126406 0.90330932 -4.51561274 0 0 0 Z " fill="#252425" transform="translate(35,122)"/>
<path d="M0 0 C3.3 0.66 6.6 1.32 10 2 C10 3.65 10 5.3 10 7 C9.34 7.66 8.68 8.32 8 9 C7.28591666 10.98356483 6.61382258 12.98315437 6 15 C5.01 14.67 4.02 14.34 3 14 C2.3125 11.9375 2.3125 11.9375 2 10 C1.34 10 0.68 10 0 10 C-0.33 10.66 -0.66 11.32 -1 12 C-1.99 12 -2.98 12 -4 12 C-3.33501617 7.61110675 -1.81242323 4.0188515 0 0 Z " fill="#515151" transform="translate(127,24)"/>
<path d="M0 0 C1.32 0 2.64 0 4 0 C3.0022242 2.99332739 2.2477975 3.94766315 0 6 C2.25 3.9375 2.25 3.9375 5 2 C7.43138705 2.2084046 8.82850911 2.91425455 11 4 C10.64598897 7.18609925 10.16972964 8.79066678 8.125 11.3125 C6 13 6 13 3 13 C3 12.01 3 11.02 3 10 C0.03 9.505 0.03 9.505 -3 9 C-2.25 2.25 -2.25 2.25 0 0 Z " fill="#575757" transform="translate(159,136)"/>
<path d="M0 0 C4.37934119 0.51958285 8.68803391 1.05675742 13 2 C12.34 4.97 11.68 7.94 11 11 C10.01 11 9.02 11 8 11 C8.33 9.02 8.66 7.04 9 5 C8.34 5 7.68 5 7 5 C7 6.65 7 8.3 7 10 C6.01 10 5.02 10 4 10 C4.33 8.02 4.66 6.04 5 4 C4.01 4 3.02 4 2 4 C2 5.65 2 7.3 2 9 C0.68 9 -0.64 9 -2 9 C-1.51421457 5.87709365 -1.0013988 3.00419641 0 0 Z " fill="#3B3A3B" transform="translate(22,76)"/>
<path d="M0 0 C1.67542976 0.28604898 3.34385343 0.61781233 5 1 C5 1.66 5 2.32 5 3 C5.66 3 6.32 3 7 3 C8.60725635 6.21451269 8.05748185 9.43612536 8 13 C7.34 13 6.68 13 6 13 C5.34 13.66 4.68 14.32 4 15 C3.34 15 2.68 15 2 15 C2 12.36 2 9.72 2 7 C-1.67986596 6.795563 -3.78360346 7.25434889 -7 9 C-6.02180976 7.68677212 -5.0424189 6.37443848 -4.0625 5.0625 C-3.51722656 4.33160156 -2.97195312 3.60070313 -2.41015625 2.84765625 C-1 1 -1 1 0 0 Z " fill="#F9A95F" transform="translate(98,52)"/>
<path d="M0 0 C1.41655793 -0.0272415 2.83327045 -0.04650467 4.25 -0.0625 C5.43335938 -0.07990234 5.43335938 -0.07990234 6.640625 -0.09765625 C8.90691002 -0.00385306 10.8288895 0.36758937 13 1 C13 1.99 13 2.98 13 4 C11.68 4.33 10.36 4.66 9 5 C9.515625 5.4125 10.03125 5.825 10.5625 6.25 C11.036875 6.8275 11.51125 7.405 12 8 C11.6875 10.1875 11.6875 10.1875 11 12 C10.608125 11.484375 10.21625 10.96875 9.8125 10.4375 C8.05555837 8.70142979 8.05555837 8.70142979 5.5 9.25 C3.65723859 9.80282842 1.82517122 10.39160959 0 11 C0 9.68 0 8.36 0 7 C0.99 6.34 1.98 5.68 3 5 C2.01 4.67 1.02 4.34 0 4 C0 2.68 0 1.36 0 0 Z " fill="#313031" transform="translate(19,91)"/>
<path d="M0 0 C0.99 0 1.98 0 3 0 C3 1.98 3 3.96 3 6 C3.66 6 4.32 6 5 6 C5 4.02 5 2.04 5 0 C5.99 0 6.98 0 8 0 C8 1.98 8 3.96 8 6 C8.66 6 9.32 6 10 6 C10 4.35 10 2.7 10 1 C10.99 1 11.98 1 13 1 C13 3.64 13 6.28 13 9 C8.71 9 4.42 9 0 9 C0 6.03 0 3.06 0 0 Z " fill="#333233" transform="translate(168,101)"/>
<path d="M0 0 C2.5625 0.1875 2.5625 0.1875 4.5625 2.1875 C4.6875 5.8125 4.6875 5.8125 4.5625 9.1875 C3.2425 9.5175 1.9225 9.8475 0.5625 10.1875 C0.8925 7.8775 1.2225 5.5675 1.5625 3.1875 C0.5725 3.6825 0.5725 3.6825 -0.4375 4.1875 C-0.84479228 6.50906597 -1.18188677 8.8443787 -1.4375 11.1875 C-3.43704746 11.23004356 -5.43791636 11.22830783 -7.4375 11.1875 C-8.4375 10.1875 -8.4375 10.1875 -8.53515625 8.33984375 C-8.50260417 6.2890625 -8.47005208 4.23828125 -8.4375 2.1875 C-7.4475 1.8575 -6.4575 1.5275 -5.4375 1.1875 C-5.7675 3.4975 -6.0975 5.8075 -6.4375 8.1875 C-5.4475 8.1875 -4.4575 8.1875 -3.4375 8.1875 C-3.458125 7.053125 -3.47875 5.91875 -3.5 4.75 C-3.42128378 0.26317568 -3.42128378 0.26317568 0 0 Z " fill="#242424" transform="translate(176.4375,84.8125)"/>
<path d="M0 0 C-0.9977758 2.99332739 -1.7522025 3.94766315 -4 6 C-2.02 5.34 -0.04 4.68 2 4 C2 7 2 7 0.5 8.6875 C0.005 9.120625 -0.49 9.55375 -1 10 C0.98 9.34 2.96 8.68 5 8 C5.33 8.99 5.66 9.98 6 11 C0.68456376 14.1409396 0.68456376 14.1409396 -2.125 13.5625 C-4.75277833 11.37268472 -6.30973431 8.95796496 -8 6 C-8 5.01 -8 4.02 -8 3 C-5.11165997 0.89229241 -3.61537605 0 0 0 Z " fill="#232323" transform="translate(142,157)"/>
<path d="M0 0 C-0.55728913 3.34373475 -1.35173889 6.03312999 -3 9 C-1.35 9 0.3 9 2 9 C2 9.99 2 10.98 2 12 C-1.3 12.66 -4.6 13.32 -8 14 C-7.49287967 10.28111761 -6.88391785 7.26545761 -5 4 C-6.65 4 -8.3 4 -10 4 C-10 3.01 -10 2.02 -10 1 C-3.375 0 -3.375 0 0 0 Z " fill="#292829" transform="translate(84,21)"/>
<path d="M0 0 C0.99 0 1.98 0 3 0 C3 4.29 3 8.58 3 13 C1.35 13.33 -0.3 13.66 -2 14 C-3.03319813 12.7391988 -4.05124379 11.46596742 -5.0625 10.1875 C-5.91521484 9.12595703 -5.91521484 9.12595703 -6.78515625 8.04296875 C-7.18605469 7.36878906 -7.58695312 6.69460937 -8 6 C-7.67 5.01 -7.34 4.02 -7 3 C-6.34 3 -5.68 3 -5 3 C-3.61061923 4.96147874 -2.2739589 6.96166576 -1 9 C-0.67 6.03 -0.34 3.06 0 0 Z " fill="#1F1E1F" transform="translate(128,163)"/>
<path d="M0 0 C0.33 0.99 0.66 1.98 1 3 C-0.43359375 5.26171875 -0.43359375 5.26171875 -2.4375 7.6875 C-3.09621094 8.49574219 -3.75492188 9.30398437 -4.43359375 10.13671875 C-5.20896484 11.05904297 -5.20896484 11.05904297 -6 12 C-6.99 11.67 -7.98 11.34 -9 11 C-8.505 10.0409375 -8.505 10.0409375 -8 9.0625 C-6.92728775 7.23205433 -6.92728775 7.23205433 -7 6 C-7.66 6 -8.32 6 -9 6 C-9.33 4.68 -9.66 3.36 -10 2 C-6.49223216 0.39644899 -3.85645121 -0.22036864 0 0 Z " fill="#222222" transform="translate(60,156)"/>
<path d="M0 0 C5 1.66666667 10 3.33333333 15 5 C15 6.32 15 7.64 15 9 C9.23955788 8.39363767 4.27985631 6.24341721 -1 4 C-0.67 2.68 -0.34 1.36 0 0 Z " fill="#3B3A3B" transform="translate(160,126)"/>
<path d="M0 0 C0.99 0 1.98 0 3 0 C3 1.32 3 2.64 3 4 C7.455 4.99 7.455 4.99 12 6 C12 6.99 12 7.98 12 9 C4.57142857 8 4.57142857 8 1 7 C1 7.99 1 8.98 1 10 C0.01 10 -0.98 10 -2 10 C-1.34 6.7 -0.68 3.4 0 0 Z " fill="#212021" transform="translate(167,114)"/>
<path d="M0 0 C1.98 0 3.96 0 6 0 C6 3.96 6 7.92 6 12 C5.01 12 4.02 12 3 12 C2.67 10.35 2.34 8.7 2 7 C1.34 7.66 0.68 8.32 0 9 C-1.53445094 5.93109813 -0.54984289 3.29905734 0 0 Z " fill="#2F302F" transform="translate(101,19)"/>
<path d="M0 0 C0.99 0.33 1.98 0.66 3 1 C1.50829734 5.9723422 -0.60457417 10.41845739 -3 15 C-3.99 15 -4.98 15 -6 15 C-5.54979057 9.14727744 -2.96160773 4.91779881 0 0 Z " fill="#292929" transform="translate(66,158)"/>
<path d="M0 0 C0.99 0 1.98 0 3 0 C2.03644647 10.55808656 2.03644647 10.55808656 1 15 C0.01 15 -0.98 15 -2 15 C-2.19392201 9.47322267 -1.7479503 5.24385089 0 0 Z " fill="#292829" transform="translate(116,18)"/>
<path d="M0 0 C-0.33 0.99 -0.66 1.98 -1 3 C-3.3984375 4.16796875 -3.3984375 4.16796875 -6.375 5.1875 C-7.84066406 5.70376953 -7.84066406 5.70376953 -9.3359375 6.23046875 C-12 7 -12 7 -15 7 C-15 5.68 -15 4.36 -15 3 C-13.25183142 2.49363393 -11.50137737 1.99515381 -9.75 1.5 C-8.77546875 1.2215625 -7.8009375 0.943125 -6.796875 0.65625 C-4 0 -4 0 0 0 Z " fill="#292829" transform="translate(177,76)"/>
<path d="M0 0 C0.99 0 1.98 0 3 0 C3.50435694 1.9363704 4.00333874 3.87414146 4.5 5.8125 C4.7784375 6.89144531 5.056875 7.97039062 5.34375 9.08203125 C6 12 6 12 6 15 C4.68 15 3.36 15 2 15 C0.53329887 9.77487721 -0.22577402 5.4185766 0 0 Z " fill="#2B2A2B" transform="translate(112,166)"/>
<path d="M0 0 C1.65 0.33 3.3 0.66 5 1 C4.34 4.3 3.68 7.6 3 11 C1.68 11 0.36 11 -1 11 C-1.125 3.375 -1.125 3.375 0 0 Z " fill="#E8E9E8" transform="translate(83,167)"/>
<path d="M0 0 C0.99 0 1.98 0 3 0 C5.53309233 4.64203897 7.46515599 8.65155992 8 14 C6.140625 13.8046875 6.140625 13.8046875 4 13 C2.734375 10.8203125 2.734375 10.8203125 1.75 8.125 C1.41484375 7.24070312 1.0796875 6.35640625 0.734375 5.4453125 C0 3 0 3 0 0 Z " fill="#202020" transform="translate(62,24)"/>
<path d="M0 0 C0.99 0 1.98 0 3 0 C3.66 0.99 4.32 1.98 5 3 C6.32 3 7.64 3 9 3 C9.33 5.31 9.66 7.62 10 10 C6.37386801 9.43040847 4.74482259 8.07625466 2.25 5.4375 C1.63640625 4.79683594 1.0228125 4.15617188 0.390625 3.49609375 C-0.06828125 3.00238281 -0.5271875 2.50867188 -1 2 C-0.67 1.34 -0.34 0.68 0 0 Z " fill="#1C1B1C" transform="translate(145,152)"/>
<path d="M0 0 C1.32 0 2.64 0 4 0 C3.0022242 2.99332739 2.2477975 3.94766315 0 6 C1.32 6 2.64 6 4 6 C3.34 7.32 2.68 8.64 2 10 C0.35 9.67 -1.3 9.34 -3 9 C-2.25 2.25 -2.25 2.25 0 0 Z " fill="#171617" transform="translate(159,136)"/>
<path d="M0 0 C1.134375 0.020625 2.26875 0.04125 3.4375 0.0625 C3.480221 1.72861905 3.47813832 3.39632885 3.4375 5.0625 C2.4375 6.0625 2.4375 6.0625 -1.125 6.125 C-2.259375 6.104375 -3.39375 6.08375 -4.5625 6.0625 C-4.605221 4.39638095 -4.60313832 2.72867115 -4.5625 1.0625 C-3.5625 0.0625 -3.5625 0.0625 0 0 Z " fill="#DCDCDC" transform="translate(26.5625,109.9375)"/>
<path d="M0 0 C0.6875 1.8125 0.6875 1.8125 1 4 C-0.125 5.8125 -0.125 5.8125 -2 7 C-4.6875 6.6875 -4.6875 6.6875 -7 6 C-6.625 3.5625 -6.625 3.5625 -6 1 C-4 0 -4 0 0 0 Z " fill="#E4E5E4" transform="translate(42,141)"/>
<path d="M0 0 C3.96 0 7.92 0 12 0 C11.34 1.32 10.68 2.64 10 4 C10.99 5.485 10.99 5.485 12 7 C11.67 7.66 11.34 8.32 11 9 C11.66 9.33 12.32 9.66 13 10 C12.67 10.66 12.34 11.32 12 12 C12.99 12 13.98 12 15 12 C14.67 12.66 14.34 13.32 14 14 C12.02 13.01 10.04 12.02 8 11 C8.33 10.34 8.66 9.68 9 9 C8.71758117 6.6599583 8.38749213 4.32495277 8 2 C5.69 2 3.38 2 1 2 C0.67 1.34 0.34 0.68 0 0 Z " fill="#F8B473" transform="translate(95,100)"/>
<path d="M0 0 C0.66 0 1.32 0 2 0 C2 3.96 2 7.92 2 12 C0.35 12 -1.3 12 -3 12 C-3.33 10.35 -3.66 8.7 -4 7 C-2.68 7.33 -1.36 7.66 0 8 C0 5.36 0 2.72 0 0 Z " fill="#0B0A0B" transform="translate(105,170)"/>
<path d="M0 0 C1.33855056 0.78281305 2.67073644 1.57651877 4 2.375 C5.11375 3.03628906 5.11375 3.03628906 6.25 3.7109375 C6.8275 4.13632813 7.405 4.56171875 8 5 C8 5.66 8 6.32 8 7 C8.66 7 9.32 7 10 7 C9.67 8.65 9.34 10.3 9 12 C8.4225 11.21625 7.845 10.4325 7.25 9.625 C3.33252188 5.05460886 -0.0980994 4.68098853 -6 4 C-6 3.67 -6 3.34 -6 3 C-4.02 3 -2.04 3 0 3 C0 2.01 0 1.02 0 0 Z " fill="#F8AB62" transform="translate(104,72)"/>
<path d="M0 0 C2.475 0.495 2.475 0.495 5 1 C5.33 2.98 5.66 4.96 6 7 C5.34 7 4.68 7 4 7 C4 6.01 4 5.02 4 4 C3.34 4 2.68 4 2 4 C2 6.31 2 8.62 2 11 C1.34 11 0.68 11 0 11 C0 7.37 0 3.74 0 0 Z " fill="#070607" transform="translate(92,20)"/>
<path d="M0 0 C0 0.99 0 1.98 0 3 C-1.43554025 3.50559908 -2.8735202 4.0042749 -4.3125 4.5 C-5.51326172 4.91765625 -5.51326172 4.91765625 -6.73828125 5.34375 C-9 6 -9 6 -12 6 C-11.67 4.35 -11.34 2.7 -11 1 C-10.67 1.66 -10.34 2.32 -10 3 C-8.906875 2.319375 -7.81375 1.63875 -6.6875 0.9375 C-3.375 -1.125 -3.375 -1.125 0 0 Z " fill="#222122" transform="translate(39,131)"/>
<path d="M0 0 C1.32 0 2.64 0 4 0 C4.33 1.65 4.66 3.3 5 5 C4.01 5 3.02 5 2 5 C2 7.31 2 9.62 2 12 C1.34 12 0.68 12 0 12 C0 8.04 0 4.08 0 0 Z " fill="#0E0D0E" transform="translate(96,170)"/>
<path d="M0 0 C3 2 3 2 4 5 C7.60992379 4.34414811 7.60992379 4.34414811 11 3 C10.34 4.98 9.68 6.96 9 9 C5.72965541 9.36337162 4.39116247 9.28544288 1.6875 7.3125 C-0.28544288 4.60883753 -0.36337162 3.27034459 0 0 Z " fill="#292829" transform="translate(32,142)"/>
<path d="M0 0 C0.33 0 0.66 0 1 0 C1.125 2.875 1.125 2.875 1 6 C-1 8 -1 8 -3.1640625 8.1953125 C-4.38222656 8.16050781 -4.38222656 8.16050781 -5.625 8.125 C-6.44226563 8.10695313 -7.25953125 8.08890625 -8.1015625 8.0703125 C-8.72804688 8.04710938 -9.35453125 8.02390625 -10 8 C-9.67 6.68 -9.34 5.36 -9 4 C-6.03 4.33 -3.06 4.66 0 5 C0 3.35 0 1.7 0 0 Z " fill="#141314" transform="translate(31,111)"/>
<path d="M0 0 C1.98 0 3.96 0 6 0 C7.80411967 2.75924185 8.0127245 3.88972103 7.625 7.25 C7.41875 8.1575 7.2125 9.065 7 10 C6.01 9.67 5.02 9.34 4 9 C4 7.35 4 5.7 4 4 C2.68 3.34 1.36 2.68 0 2 C0 1.34 0 0.68 0 0 Z " fill="#5B5B5B" transform="translate(83,165)"/>
<path d="M0 0 C2.375 -0.125 2.375 -0.125 5 0 C7 2 7 2 7.125 5.625 C7.08375 6.73875 7.0425 7.8525 7 9 C5.68 9.33 4.36 9.66 3 10 C3.33 7.36 3.66 4.72 4 2 C2.68 1.34 1.36 0.68 0 0 Z " fill="#353535" transform="translate(174,85)"/>
<path d="M0 0 C1.65 0 3.3 0 5 0 C4.34 2.97 3.68 5.94 3 9 C2.01 9 1.02 9 0 9 C0.33 7.02 0.66 5.04 1 3 C0.34 2.67 -0.32 2.34 -1 2 C-0.67 1.34 -0.34 0.68 0 0 Z " fill="#2D2D2D" transform="translate(30,78)"/>
<path d="M0 0 C0.99 0 1.98 0 3 0 C2.67 3.63 2.34 7.26 2 11 C1.34 9.68 0.68 8.36 0 7 C-0.33 8.65 -0.66 10.3 -1 12 C-1.33 12 -1.66 12 -2 12 C-1.85831863 10.56208484 -1.71148957 9.1246763 -1.5625 7.6875 C-1.48128906 6.88699219 -1.40007812 6.08648437 -1.31640625 5.26171875 C-1 3 -1 3 0 0 Z " fill="#303030" transform="translate(80,167)"/>
<path d="M0 0 C0.33 0.99 0.66 1.98 1 3 C1.66 3 2.32 3 3 3 C3.33 2.01 3.66 1.02 4 0 C4 1.65 4 3.3 4 5 C4.66 5 5.32 5 6 5 C6 5.99 6 6.98 6 8 C3.0280615 6.87548273 0.66559313 5.77706209 -2 4 C-1.34 2.68 -0.68 1.36 0 0 Z " fill="#F9AE68" transform="translate(69,140)"/>
<path d="M0 0 C3.63 0 7.26 0 11 0 C11 1.32 11 2.64 11 4 C7.0507432 3.44894091 3.65079826 2.61064629 0 1 C0 0.67 0 0.34 0 0 Z " fill="#515051" transform="translate(164,131)"/>
<path d="M0 0 C1.32 0.99 2.64 1.98 4 3 C3.6875 4.875 3.6875 4.875 3 7 C2.01 7.66 1.02 8.32 0 9 C-1.10844919 5.67465243 -0.84454356 3.37817425 0 0 Z " fill="#F7A75B" transform="translate(154,110)"/>
<path d="M0 0 C0.91058531 3.07322544 1.08886184 5.80097361 1 9 C0.01 9.33 -0.98 9.66 -2 10 C-3.06351675 6.61608307 -3.21442982 5.4195366 -1.5625 2.1875 C-1.046875 1.465625 -0.53125 0.74375 0 0 Z " fill="#0D0C0D" transform="translate(50,154)"/>
<path d="M0 0 C0.95904856 3.83619425 0.91892116 5.32431536 0 9 C-0.433125 8.505 -0.86625 8.01 -1.3125 7.5 C-2.99740483 5.66781808 -2.99740483 5.66781808 -6 6 C-4.02 4.02 -2.04 2.04 0 0 Z " fill="#F9AA62" transform="translate(54,100)"/>
<path d="M0 0 C3.67420866 0.30618405 4.78135513 0.75771784 7.3125 3.5625 C8.1478125 4.7690625 8.1478125 4.7690625 9 6 C6.69 5.67 4.38 5.34 2 5 C1.34 3.35 0.68 1.7 0 0 Z " fill="#F8A85D" transform="translate(135,93)"/>
<path d="M0 0 C0.66 0 1.32 0 2 0 C2 0.66 2 1.32 2 2 C2.66 2.33 3.32 2.66 4 3 C2.1875 5 2.1875 5 0 7 C-0.99 7 -1.98 7 -3 7 C-2.25 2.25 -2.25 2.25 0 0 Z " fill="#212021" transform="translate(126,29)"/>
<path d="M0 0 C0.99 0.99 1.98 1.98 3 3 C2.34 4.65 1.68 6.3 1 8 C0.01 8 -0.98 8 -2 8 C-1.125 2.25 -1.125 2.25 0 0 Z " fill="#444444" transform="translate(62,165)"/>
<path d="M0 0 C3 1 3 1 6 3 C0.375 5 0.375 5 -3 5 C-2.625 3.0625 -2.625 3.0625 -2 1 C-1.34 0.67 -0.68 0.34 0 0 Z " fill="#323232" transform="translate(26,124)"/>
<path d="M0 0 C2.86724686 0.57344937 3.8614515 0.8614515 6 3 C5.625 5.125 5.625 5.125 5 7 C4.566875 6.525625 4.13375 6.05125 3.6875 5.5625 C1.97690387 3.76313043 1.97690387 3.76313043 -1 3 C-0.67 2.01 -0.34 1.02 0 0 Z " fill="#232223" transform="translate(25,96)"/>
<path d="M0 0 C0.99 0 1.98 0 3 0 C5 3 5 3 5 6 C4.34 6 3.68 6 3 6 C2.67 6.66 2.34 7.32 2 8 C0.74335022 5.09399739 0 3.20395416 0 0 Z " fill="#383838" transform="translate(62,24)"/>
<path d="M0 0 C1.32 0 2.64 0 4 0 C3.0022242 2.99332739 2.2477975 3.94766315 0 6 C0.66 6.33 1.32 6.66 2 7 C1.01 7 0.02 7 -1 7 C-1.625 4.625 -1.625 4.625 -2 2 C-1.34 1.34 -0.68 0.68 0 0 Z " fill="#2B2A2B" transform="translate(159,136)"/>
<path d="M0 0 C0.99 0 1.98 0 3 0 C4.35439668 2.70879335 4.06501451 5.00933268 4 8 C2 6.8125 2 6.8125 0 5 C-0.25 2.3125 -0.25 2.3125 0 0 Z " fill="#F6A85E" transform="translate(110,110)"/>
<path d="M0 0 C1.65 0.33 3.3 0.66 5 1 C4.34 1.66 3.68 2.32 3 3 C2.28591666 4.98356483 1.61382258 6.98315437 1 9 C0.34 8.67 -0.32 8.34 -1 8 C-0.67 5.36 -0.34 2.72 0 0 Z " fill="#0F0E0F" transform="translate(173,86)"/>
<path d="M0 0 C2.64 0 5.28 0 8 0 C8 0.66 8 1.32 8 2 C4.7 2.66 1.4 3.32 -2 4 C-1.34 2.68 -0.68 1.36 0 0 Z " fill="#100F10" transform="translate(78,31)"/>
<path d="M0 0 C0.66 0 1.32 0 2 0 C1.67 2.31 1.34 4.62 1 7 C1.66 7.33 2.32 7.66 3 8 C1.68 7.67 0.36 7.34 -1 7 C-1.04254356 5.00045254 -1.04080783 2.99958364 -1 1 C-0.67 0.67 -0.34 0.34 0 0 Z " fill="#A7A8A7" transform="translate(176,88)"/>
<path d="M0 0 C1.32 0.33 2.64 0.66 4 1 C3.34 2.32 2.68 3.64 2 5 C0.68 4.34 -0.64 3.68 -2 3 C-1.34 2.01 -0.68 1.02 0 0 Z " fill="#D8D9D8" transform="translate(150,151)"/>
<path d="M0 0 C1.32 0 2.64 0 4 0 C4 3.63 4 7.26 4 11 C3.67 11 3.34 11 3 11 C3 8.36 3 5.72 3 3 C2.01 3 1.02 3 0 3 C0 2.01 0 1.02 0 0 Z " fill="#040204" transform="translate(102,20)"/>
<path d="M0 0 C2.25 0.25 2.25 0.25 4 1 C3.01 1.33 2.02 1.66 1 2 C1.66 2.66 2.32 3.32 3 4 C1.35 4.66 -0.3 5.32 -2 6 C-2.66 5.34 -3.32 4.68 -4 4 C-2.25 1.9375 -2.25 1.9375 0 0 Z " fill="#4A4A4A" transform="translate(150,147)"/>
<path d="M0 0 C0.99 0 1.98 0 3 0 C3.66 1.32 4.32 2.64 5 4 C4.34 4.66 3.68 5.32 3 6 C1.68 4.35 0.36 2.7 -1 1 C-0.67 0.67 -0.34 0.34 0 0 Z " fill="#2C2B2C" transform="translate(145,152)"/>
<path d="M0 0 C0.33 0.66 0.66 1.32 1 2 C1.66 2 2.32 2 3 2 C2.67 4.31 2.34 6.62 2 9 C0 7 0 7 -0.125 3.375 C-0.08375 2.26125 -0.0425 1.1475 0 0 Z " fill="#555555" transform="translate(19,109)"/>
<path d="M0 0 C1.67542976 0.28604898 3.34385343 0.61781233 5 1 C5 2.32 5 3.64 5 5 C4.01 4.67 3.02 4.34 2 4 C2 3.34 2 2.68 2 2 C1.01 1.67 0.02 1.34 -1 1 C-0.67 0.67 -0.34 0.34 0 0 Z " fill="#222122" transform="translate(165,139)"/>
<path d="M0 0 C0.66 0 1.32 0 2 0 C2 2.31 2 4.62 2 7 C1.01 7 0.02 7 -1 7 C-0.67 4.69 -0.34 2.38 0 0 Z " fill="#B7B6B7" transform="translate(171,86)"/>
<path d="M0 0 C0.66 0 1.32 0 2 0 C2.33 1.65 2.66 3.3 3 5 C2.34 5 1.68 5 1 5 C1 5.99 1 6.98 1 8 C0.01 7.67 -0.98 7.34 -2 7 C-1.34 7 -0.68 7 0 7 C0 4.69 0 2.38 0 0 Z " fill="#6B6A6B" transform="translate(94,24)"/>
</svg>
